<?xml version="1.0" encoding="iso-8859-1"?>
<!-- Generator: Adobe Illustrator 16.0.0, SVG Export Plug-In . SVG Version: 6.00 Build 0)  -->
<!DOCTYPE svg PUBLIC "-//W3C//DTD SVG 1.1//EN" "http://www.w3.org/Graphics/SVG/1.1/DTD/svg11.dtd">
<svg version="1.1" id="Capa_1" xmlns="http://www.w3.org/2000/svg" xmlns:xlink="http://www.w3.org/1999/xlink" x="0px" y="0px"
	 width="43.643px" height="43.643px" viewBox="0 0 43.643 43.643" style="enable-background:new 0 0 43.643 43.643;"
	 xml:space="preserve">
<g>
	<g>
		<polygon points="31.865,30.307 31.417,30.219 31.096,30.672 31.25,31.086 31.803,30.879 		"/>
		<polygon points="23.591,36.971 23.591,37.616 24.007,38.018 24.384,37.412 25.126,36.325 25.482,34.619 25.031,34.619 
			24.591,35.497 23.835,35.399 23.835,35.984 24.105,36.301 23.898,36.617 		"/>
		<path d="M9.926,17.22c1.748,1.903,3.574,4.595,3.593,4.622l0.883,1.305l0,0l0.096,0.141l0.075-0.135l0,0l0.519-0.936l0,0
			l0.045-0.082l0,0l0.129-0.232l0.407-0.039l0.291-0.348l-0.309-0.121l-0.063-0.073c0.176-0.312,0.432-0.764,0.731-1.284l0,0
			c0.052-0.091,0.107-0.187,0.162-0.281c0.568-0.981,1.246-2.125,1.79-2.956c2.895-1.706,4.628-4.933,4.434-8.3
			c-0.285-4.941-4.521-8.763-9.529-8.486C8.214,0.302,4.408,4.576,4.694,9.542C4.888,12.9,6.886,15.821,9.926,17.22z M13.304,2.156
			c0.135-0.008,0.27-0.012,0.404-0.012c3.637,0,6.649,2.847,6.859,6.481c0.152,2.636-1.246,5.161-3.563,6.432l-0.229,0.126
			l-0.146,0.218c-0.703,1.051-1.65,2.666-2.324,3.842c-0.765-1.045-1.871-2.485-2.962-3.647l-0.153-0.163l-0.205-0.088
			c-2.409-1.036-4-3.307-4.151-5.925C6.616,5.634,9.517,2.375,13.304,2.156z"/>
		<path d="M24.359,11.715c-0.113,0.441-0.252,0.873-0.416,1.295c3.59,0.238,6.834,1.759,9.264,4.126
			c0.172,0.167,0.338,0.343,0.502,0.52h-2.074l-1.043-0.622l-2.088,0.132l-1.584,0.708l0.012,0.823l-0.488,0.146l-0.109-0.823
			l-0.182-0.286l-0.55-0.135l-0.129,0.494l0.164,0.401l-1.948-0.127l-0.931,0.432l-0.143-0.407l-0.23,0.061l-0.17,0.451
			l-0.486,0.381l-1.189-0.033l-0.055-0.262l1.244-0.055l0.254-0.219l-1.498-0.695l-0.469,0.014
			c-0.104,0.073-0.195,0.159-0.302,0.228c-0.095,0.15-0.194,0.31-0.294,0.472l0.055-0.038l-1.068,0.745l-0.005,1
			c-0.054,0.092-0.107,0.184-0.16,0.274l0.159-0.081l-0.629,0.318l0.063,0.21l1.006,0.009l-0.857-0.008
			c-0.354,0.615-0.662,1.16-0.859,1.512l-0.031,0.056l0,0l-0.289,0.522l0.287-0.26l0.088,0.328l1.143,0.771l-0.139,0.188
			l-0.516-0.028l0.197,0.282l0.318,0.069l0.371-0.155l-0.006-0.448l0.164-0.082l-0.131-0.142l-0.764-0.425l-0.201-0.566h0.635
			l0.203,0.202l0.547,0.47l0.023,0.57l0.564,0.604l0.211-0.828l0.395-0.213l0.072,0.676l0.383,0.42l1.156-0.02l0.342,0.256v0.604
			l-0.418,0.384h-1.17l-0.713-0.53l-0.75,0.072v0.458H18.86l-0.256-0.183l-1.299-0.329v-0.841l-1.283,0.1l-1.354,2.443l-1.204-1.778
			l-0.082,0.045v0.829l-1.619,1.169l0.133,0.5h0.33l-0.086,0.476l-0.232,0.084l-0.012,1.242l1.4,1.596h0.611l0.037-0.098h1.096
			l0.316-0.292h0.621l0.342,0.341l0.926,0.098l-0.123,1.236l1.031,1.815L17.61,35.4l0.037,0.488l0.426,0.425v1.172l0.561,0.753
			v0.975h1.658l1.242-1.279l0.389-0.693l0.5-0.109v-0.584l0.328-0.392l0.695-0.95L23.3,33.758l-0.305-0.539l1.367-1.306l1.508-2.153
			l-0.293-0.135l-1.565,0.328l-0.401-0.201l-1.646-3.098l0.115-0.134l1.631,1.979l0.039,0.613l0.377,0.378l0.769-0.05l1.604-1.16
			l0.502-0.329l-0.01-0.402l-0.535-0.069c0,0-1.877-0.886-1.877-0.923c0-0.041,0.012-0.76,0.012-0.76h0.414l0.062,0.524l0.869,0.5
			l0.994,0.049l2.156,0.353l0.504,0.317v0.494l-0.064,0.671l1.105,1.818l0.357,0.082l0.354-0.516l0.197-1.472l0.366-0.792
			l0.597-0.222l1.047,0.1l1.313,1.169v1.682l1.738,1.662l0.09-0.291l-1.406-2.011l0.146-0.585l0.742,0.844l0.416,0.043l0.545-0.362
			l-0.092-0.548l-0.9-0.726l-0.035-0.657l0.256-0.348l0.457,0.146l-0.037,0.311l0.261,0.4l0.231-0.163l-0.127-0.476l0.496-0.178
			c0,0.008,0.002,0.018,0.002,0.025c0,8.097-6.588,14.684-14.684,14.684c-8.098,0-14.684-6.587-14.684-14.684
			c0-2.566,0.666-4.979,1.827-7.081c-0.278-0.361-0.57-0.729-0.874-1.092c-1.432,2.396-2.27,5.185-2.27,8.173
			c0,8.822,7.178,16,16,16c8.821,0,16-7.178,16-16C38.966,19.292,32.531,12.424,24.359,11.715z M18.983,19.432l0.021-0.013
			c-0.007,0.012-0.015,0.024-0.021,0.036V19.432z"/>
		<rect x="15.074" y="8.923" width="1.685" height="1.685"/>
		<path d="M9.76,13.182h7.812V7.248h0.999l-4.905-4.156L9.763,6.447H9.761V6.45l-0.93,0.798h0.93L9.76,13.182L9.76,13.182z
			 M10.561,7.248h6.209v5.133h-3.104V8.9h-2.035v3.481h-1.069V7.248H10.561z"/>
	</g>
</g>
<g>
</g>
<g>
</g>
<g>
</g>
<g>
</g>
<g>
</g>
<g>
</g>
<g>
</g>
<g>
</g>
<g>
</g>
<g>
</g>
<g>
</g>
<g>
</g>
<g>
</g>
<g>
</g>
<g>
</g>
</svg>
